# xmcd
#
# Track frame offsets:
#	150
#	20165
#	46190
#
# Disc length: 932 seconds
#
# Revision: 0
# Processed by: cddbd v1.5.2PL0 Copyright (c) Steve Scherf et al.
# Submitted via: audiograbber 1.83.01
#
DISCID=1e03a203
DTITLE=Movetron - Prinssi [CDM)
DYEAR=1996
DGENRE=Dance
TTITLE0=Prinssi (Original)
TTITLE1=Prinssi (Remix)
TTITLE2=Aikaa
EXTD=TR.
EXTT0=
EXTT1=
EXTT2=
PLAYORDER=
